<mxfile host="app.diagrams.net" agent="Mozilla/5.0 (Windows NT 10.0; Win64; x64) AppleWebKit/537.36 (KHTML, like Gecko) Chrome/138.0.0.0 Safari/537.36" version="28.0.6">
  <diagram name="Page-1" id="2p3W1TwI71qRCSyU0E8I">
    <mxGraphModel dx="1678" dy="881" grid="1" gridSize="10" guides="1" tooltips="1" connect="1" arrows="1" fold="1" page="1" pageScale="1" pageWidth="2500" pageHeight="1920" background="none" math="0" shadow="0">
      <root>
        <mxCell id="0" />
        <mxCell id="1" parent="0" />
        <mxCell id="SgpQ-Ep98uLSc8GFuPtw-1" value="" style="rounded=0;whiteSpace=wrap;html=1;dashed=1;fillColor=#eeeeee;strokeColor=#36393d;opacity=50;" parent="1" vertex="1">
          <mxGeometry x="50" y="200" width="390" height="520" as="geometry" />
        </mxCell>
        <mxCell id="qWopWF9tR3x7Arqnewn6-78" value="" style="rounded=0;whiteSpace=wrap;html=1;dashed=1;fillColor=none;" parent="1" vertex="1">
          <mxGeometry x="71.75" y="230" width="180" height="478.05" as="geometry" />
        </mxCell>
        <mxCell id="SgpQ-Ep98uLSc8GFuPtw-4" value="" style="rounded=0;whiteSpace=wrap;html=1;dashed=1;fillColor=#DEEDFF;strokeColor=#6c8ebf;" parent="1" vertex="1">
          <mxGeometry x="450" y="200" width="270" height="520" as="geometry" />
        </mxCell>
        <mxCell id="SgpQ-Ep98uLSc8GFuPtw-3" value="&lt;font style=&quot;font-size: 23px;&quot;&gt;&lt;b style=&quot;&quot;&gt;On-Premises&lt;/b&gt;&lt;/font&gt;" style="rounded=0;whiteSpace=wrap;html=1;fillColor=none;strokeColor=none;fontSize=18;dashed=1;" parent="1" vertex="1">
          <mxGeometry x="167.5" y="170" width="155" height="30" as="geometry" />
        </mxCell>
        <mxCell id="qWopWF9tR3x7Arqnewn6-17" value="" style="group;fillColor=none;" parent="1" vertex="1" connectable="0">
          <mxGeometry x="470" y="220" width="200" height="490" as="geometry" />
        </mxCell>
        <mxCell id="SgpQ-Ep98uLSc8GFuPtw-6" value="" style="rounded=0;whiteSpace=wrap;html=1;dashed=1;fillColor=none;" parent="qWopWF9tR3x7Arqnewn6-17" vertex="1">
          <mxGeometry y="11.95" width="170" height="478.05" as="geometry" />
        </mxCell>
        <mxCell id="qWopWF9tR3x7Arqnewn6-22" value="&lt;font style=&quot;font-size: 13px;&quot;&gt;&lt;b&gt;Object Type&lt;/b&gt;: CSV Files&lt;/font&gt;" style="text;html=1;align=center;verticalAlign=middle;whiteSpace=wrap;rounded=0;" parent="qWopWF9tR3x7Arqnewn6-17" vertex="1">
          <mxGeometry x="-16.048421052631582" y="191.22878048780487" width="197.36842105263156" height="35.853658536585364" as="geometry" />
        </mxCell>
        <mxCell id="qWopWF9tR3x7Arqnewn6-23" value="&lt;span style=&quot;font-size: 13px;&quot;&gt;&lt;b&gt;Function: &lt;/b&gt;Store&amp;nbsp;&lt;/span&gt;&lt;div style=&quot;&quot;&gt;&lt;span style=&quot;font-size: 13px;&quot;&gt;Raw Datasets&lt;/span&gt;&lt;/div&gt;" style="text;html=1;align=center;verticalAlign=middle;whiteSpace=wrap;rounded=0;" parent="qWopWF9tR3x7Arqnewn6-17" vertex="1">
          <mxGeometry x="-13.028421052631586" y="227.07804878048782" width="197.36842105263156" height="35.853658536585364" as="geometry" />
        </mxCell>
        <mxCell id="SgpQ-Ep98uLSc8GFuPtw-27" value="" style="image;sketch=0;aspect=fixed;html=1;points=[];align=center;fontSize=12;image=img/lib/mscae/BlobBlock.svg;" parent="qWopWF9tR3x7Arqnewn6-17" vertex="1">
          <mxGeometry x="60.00421052631573" y="80.0021951219512" width="50" height="42" as="geometry" />
        </mxCell>
        <mxCell id="qWopWF9tR3x7Arqnewn6-19" value="&lt;font style=&quot;font-size: 14px;&quot;&gt;Azure&amp;nbsp;&lt;/font&gt;&lt;div&gt;&lt;font style=&quot;font-size: 14px;&quot;&gt;Blob Storage&lt;/font&gt;&lt;/div&gt;" style="text;html=1;align=center;verticalAlign=middle;whiteSpace=wrap;rounded=0;" parent="qWopWF9tR3x7Arqnewn6-17" vertex="1">
          <mxGeometry x="11.315789473684209" y="129.99829268292683" width="147.36842105263156" height="35.853658536585364" as="geometry" />
        </mxCell>
        <mxCell id="SgpQ-Ep98uLSc8GFuPtw-43" value="" style="line;strokeWidth=1;rotatable=0;dashed=0;labelPosition=right;align=left;verticalAlign=middle;spacingTop=0;spacingLeft=6;points=[];portConstraint=eastwest;" parent="qWopWF9tR3x7Arqnewn6-17" vertex="1">
          <mxGeometry x="11.32" y="180" width="148.68" height="11.95" as="geometry" />
        </mxCell>
        <mxCell id="SgpQ-Ep98uLSc8GFuPtw-7" value="&lt;font style=&quot;font-size: 18px;&quot;&gt;&lt;b&gt;&amp;nbsp;Azure&amp;nbsp;&lt;/b&gt;&lt;/font&gt;" style="rounded=0;whiteSpace=wrap;html=1;fillColor=#cce5ff;strokeColor=#36393d;opacity=50;labelBackgroundColor=default;" parent="qWopWF9tR3x7Arqnewn6-17" vertex="1">
          <mxGeometry x="52.91" width="64.17" height="23.902439024390244" as="geometry" />
        </mxCell>
        <mxCell id="qWopWF9tR3x7Arqnewn6-25" value="" style="shape=flexArrow;endArrow=classic;html=1;rounded=0;fillColor=#dae8fc;strokeColor=#6c8ebf;" parent="qWopWF9tR3x7Arqnewn6-17" edge="1">
          <mxGeometry width="50" height="50" relative="1" as="geometry">
            <mxPoint x="158.67999999999995" y="122" as="sourcePoint" />
            <mxPoint x="218.67999999999995" y="122" as="targetPoint" />
          </mxGeometry>
        </mxCell>
        <mxCell id="fqEwVpQqHCHQ80SQMjaH-25" value="Go next" style="edgeLabel;html=1;align=center;verticalAlign=middle;resizable=0;points=[];labelBackgroundColor=none;" vertex="1" connectable="0" parent="qWopWF9tR3x7Arqnewn6-25">
          <mxGeometry x="0.544" y="-2" relative="1" as="geometry">
            <mxPoint x="-5" y="24" as="offset" />
          </mxGeometry>
        </mxCell>
        <mxCell id="SgpQ-Ep98uLSc8GFuPtw-41" value="" style="line;strokeWidth=1;rotatable=0;dashed=0;labelPosition=right;align=left;verticalAlign=middle;spacingTop=0;spacingLeft=6;points=[];portConstraint=eastwest;" parent="1" vertex="1">
          <mxGeometry x="81.75" y="458.05" width="160" height="10" as="geometry" />
        </mxCell>
        <mxCell id="qWopWF9tR3x7Arqnewn6-5" value="&lt;font style=&quot;font-size: 13px;&quot;&gt;&lt;b&gt;Object Type&lt;/b&gt;: CSV Files&lt;/font&gt;" style="text;html=1;align=left;verticalAlign=middle;whiteSpace=wrap;rounded=0;" parent="1" vertex="1">
          <mxGeometry x="81.75" y="468.05" width="164.5" height="30" as="geometry" />
        </mxCell>
        <mxCell id="qWopWF9tR3x7Arqnewn6-6" value="&lt;span style=&quot;font-size: 13px;&quot;&gt;&lt;b&gt;Interface: &lt;/b&gt;Files in&amp;nbsp;&lt;/span&gt;&lt;span style=&quot;font-size: 13px; background-color: transparent; color: light-dark(rgb(0, 0, 0), rgb(255, 255, 255));&quot;&gt;Local Folders&lt;/span&gt;" style="text;html=1;align=center;verticalAlign=middle;whiteSpace=wrap;rounded=0;" parent="1" vertex="1">
          <mxGeometry x="69.5" y="510" width="164.5" height="30" as="geometry" />
        </mxCell>
        <mxCell id="qWopWF9tR3x7Arqnewn6-11" value="&lt;font style=&quot;font-size: 13px;&quot;&gt;&lt;b&gt;Object Type&lt;/b&gt;:&amp;nbsp;&lt;/font&gt;&lt;div&gt;&lt;font style=&quot;font-size: 13px;&quot;&gt;Powershell&amp;nbsp;&lt;/font&gt;&lt;span style=&quot;font-size: 13px; background-color: transparent; color: light-dark(rgb(0, 0, 0), rgb(255, 255, 255));&quot;&gt;Script&lt;/span&gt;&lt;/div&gt;" style="text;html=1;align=center;verticalAlign=middle;whiteSpace=wrap;rounded=0;" parent="1" vertex="1">
          <mxGeometry x="251.75" y="410" width="191.5" height="30" as="geometry" />
        </mxCell>
        <mxCell id="qWopWF9tR3x7Arqnewn6-12" value="&lt;span style=&quot;font-size: 13px;&quot;&gt;&lt;b&gt;Function: &lt;/b&gt;Upload&amp;nbsp;&lt;/span&gt;&lt;div&gt;&lt;span style=&quot;font-size: 13px;&quot;&gt;CSV Files to Azure&lt;/span&gt;&lt;/div&gt;" style="text;html=1;align=center;verticalAlign=middle;whiteSpace=wrap;rounded=0;" parent="1" vertex="1">
          <mxGeometry x="254.5" y="455" width="187.5" height="30" as="geometry" />
        </mxCell>
        <mxCell id="qWopWF9tR3x7Arqnewn6-13" value="" style="shape=flexArrow;endArrow=classic;html=1;rounded=0;fillColor=#dae8fc;strokeColor=#6c8ebf;" parent="1" edge="1">
          <mxGeometry width="50" height="50" relative="1" as="geometry">
            <mxPoint x="220" y="344.5" as="sourcePoint" />
            <mxPoint x="280" y="344.5" as="targetPoint" />
          </mxGeometry>
        </mxCell>
        <mxCell id="qWopWF9tR3x7Arqnewn6-79" value="" style="group" parent="1" vertex="1" connectable="0">
          <mxGeometry x="119.58" y="258.05" width="64.35000000000001" height="80" as="geometry" />
        </mxCell>
        <mxCell id="SgpQ-Ep98uLSc8GFuPtw-19" value="" style="image;aspect=fixed;html=1;points=[];align=center;fontSize=12;image=img/lib/azure2/general/Folder_Blank.svg;" parent="qWopWF9tR3x7Arqnewn6-79" vertex="1">
          <mxGeometry x="5.359999999999999" width="49.29" height="40" as="geometry" />
        </mxCell>
        <mxCell id="SgpQ-Ep98uLSc8GFuPtw-22" value="" style="image;aspect=fixed;html=1;points=[];align=center;fontSize=12;image=img/lib/azure2/general/File.svg;" parent="qWopWF9tR3x7Arqnewn6-79" vertex="1">
          <mxGeometry x="40" y="20" width="24.35" height="30" as="geometry" />
        </mxCell>
        <mxCell id="qWopWF9tR3x7Arqnewn6-2" value="&lt;font style=&quot;font-size: 14px;&quot;&gt;CRM&lt;/font&gt;" style="text;html=1;align=center;verticalAlign=middle;whiteSpace=wrap;rounded=0;" parent="qWopWF9tR3x7Arqnewn6-79" vertex="1">
          <mxGeometry y="50" width="60" height="30" as="geometry" />
        </mxCell>
        <mxCell id="qWopWF9tR3x7Arqnewn6-80" value="" style="group" parent="1" vertex="1" connectable="0">
          <mxGeometry x="119.57999999999998" y="363.05" width="64.35000000000002" height="80" as="geometry" />
        </mxCell>
        <mxCell id="SgpQ-Ep98uLSc8GFuPtw-23" value="" style="image;aspect=fixed;html=1;points=[];align=center;fontSize=12;image=img/lib/azure2/general/Folder_Blank.svg;" parent="qWopWF9tR3x7Arqnewn6-80" vertex="1">
          <mxGeometry x="5.360000000000014" width="49.29" height="40" as="geometry" />
        </mxCell>
        <mxCell id="SgpQ-Ep98uLSc8GFuPtw-24" value="" style="image;aspect=fixed;html=1;points=[];align=center;fontSize=12;image=img/lib/azure2/general/File.svg;" parent="qWopWF9tR3x7Arqnewn6-80" vertex="1">
          <mxGeometry x="40.00000000000003" y="20" width="24.35" height="30" as="geometry" />
        </mxCell>
        <mxCell id="qWopWF9tR3x7Arqnewn6-4" value="&lt;font style=&quot;font-size: 14px;&quot;&gt;ERP&lt;/font&gt;" style="text;html=1;align=center;verticalAlign=middle;whiteSpace=wrap;rounded=0;" parent="qWopWF9tR3x7Arqnewn6-80" vertex="1">
          <mxGeometry y="50" width="60" height="30" as="geometry" />
        </mxCell>
        <mxCell id="fqEwVpQqHCHQ80SQMjaH-1" value="" style="group" vertex="1" connectable="0" parent="1">
          <mxGeometry x="273.25" y="272.05" width="148.5" height="226" as="geometry" />
        </mxCell>
        <mxCell id="qWopWF9tR3x7Arqnewn6-15" value="" style="rounded=0;whiteSpace=wrap;html=1;dashed=1;fillColor=none;" parent="fqEwVpQqHCHQ80SQMjaH-1" vertex="1">
          <mxGeometry width="148.5" height="226" as="geometry" />
        </mxCell>
        <mxCell id="qWopWF9tR3x7Arqnewn6-9" value="" style="line;strokeWidth=1;rotatable=0;dashed=0;labelPosition=right;align=left;verticalAlign=middle;spacingTop=0;spacingLeft=6;points=[];portConstraint=eastwest;" parent="fqEwVpQqHCHQ80SQMjaH-1" vertex="1">
          <mxGeometry x="13" y="106" width="113" height="10" as="geometry" />
        </mxCell>
        <mxCell id="qWopWF9tR3x7Arqnewn6-81" value="" style="group" parent="fqEwVpQqHCHQ80SQMjaH-1" vertex="1" connectable="0">
          <mxGeometry x="26" y="27" width="95" height="74" as="geometry" />
        </mxCell>
        <mxCell id="SgpQ-Ep98uLSc8GFuPtw-29" value="" style="image;aspect=fixed;html=1;points=[];align=center;fontSize=12;image=img/lib/azure2/general/Powershell.svg;" parent="qWopWF9tR3x7Arqnewn6-81" vertex="1">
          <mxGeometry x="20" width="55" height="44" as="geometry" />
        </mxCell>
        <mxCell id="qWopWF9tR3x7Arqnewn6-10" value="&lt;font style=&quot;font-size: 14px;&quot;&gt;AzCopy&lt;/font&gt;" style="text;html=1;align=center;verticalAlign=middle;whiteSpace=wrap;rounded=0;" parent="qWopWF9tR3x7Arqnewn6-81" vertex="1">
          <mxGeometry y="44" width="95" height="30" as="geometry" />
        </mxCell>
        <mxCell id="fqEwVpQqHCHQ80SQMjaH-2" value="" style="shape=flexArrow;endArrow=classic;html=1;rounded=0;fillColor=#dae8fc;strokeColor=#6c8ebf;entryX=0.15;entryY=0.236;entryDx=0;entryDy=0;entryPerimeter=0;" edge="1" parent="1" target="SgpQ-Ep98uLSc8GFuPtw-6">
          <mxGeometry width="50" height="50" relative="1" as="geometry">
            <mxPoint x="399" y="345" as="sourcePoint" />
            <mxPoint x="459" y="345" as="targetPoint" />
          </mxGeometry>
        </mxCell>
        <mxCell id="fqEwVpQqHCHQ80SQMjaH-26" value="&lt;font style=&quot;font-size: 23px;&quot;&gt;&lt;b style=&quot;&quot;&gt;Cloud&lt;/b&gt;&lt;/font&gt;" style="rounded=0;whiteSpace=wrap;html=1;fillColor=none;strokeColor=none;fontSize=18;dashed=1;" vertex="1" parent="1">
          <mxGeometry x="507.5" y="170" width="155" height="30" as="geometry" />
        </mxCell>
      </root>
    </mxGraphModel>
  </diagram>
</mxfile>
